<svg width="51" height="51" viewBox="0 0 51 51" fill="none" xmlns="http://www.w3.org/2000/svg">
<path d="M17.7917 30.5H33.0417V34.3125H17.7917V30.5Z" fill="#393F57"/>
<path d="M34.3125 22.875C36.4181 22.875 38.125 21.1681 38.125 19.0625C38.125 16.9569 36.4181 15.25 34.3125 15.25C32.2069 15.25 30.5 16.9569 30.5 19.0625C30.5 21.1681 32.2069 22.875 34.3125 22.875Z" fill="#393F57"/>
<path d="M16.5208 22.875C18.6264 22.875 20.3333 21.1681 20.3333 19.0625C20.3333 16.9569 18.6264 15.25 16.5208 15.25C14.4152 15.25 12.7083 16.9569 12.7083 19.0625C12.7083 21.1681 14.4152 22.875 16.5208 22.875Z" fill="#393F57"/>
<path d="M25.3912 0C11.3612 0 0 11.3867 0 25.4167C0 39.4467 11.3612 50.8333 25.3912 50.8333C39.4467 50.8333 50.8333 39.4467 50.8333 25.4167C50.8333 11.3867 39.4467 0 25.3912 0ZM25.4167 45.75C14.1825 45.75 5.08333 36.6508 5.08333 25.4167C5.08333 14.1825 14.1825 5.08333 25.4167 5.08333C36.6508 5.08333 45.75 14.1825 45.75 25.4167C45.75 36.6508 36.6508 45.75 25.4167 45.75Z" fill="#393F57"/>
</svg>
